<svg xmlns="http://www.w3.org/2000/svg" viewBox="0 0 1526.44 760.14"><defs><style>.cls-1{fill:#efedee;}.cls-2{fill:#ffe094;}.cls-14,.cls-3,.cls-7{fill:none;}.cls-3{stroke:#95aaaf;}.cls-14,.cls-3,.cls-4,.cls-5,.cls-6,.cls-7{stroke-miterlimit:10;}.cls-3,.cls-4,.cls-5,.cls-6{stroke-width:3px;}.cls-4{fill:#bcb3ba;stroke:#7d9196;}.cls-5{fill:#a7c0e4;stroke:#95a1a4;}.cls-6{fill:#d4ad98;stroke:#8ea2a3;}.cls-7{stroke:#663434;stroke-width:4px;}.cls-10,.cls-8{font-size:30px;font-family:Helvetica-Oblique, Helvetica;font-style:oblique;}.cls-8{fill:#e6e7e8;}.cls-9{letter-spacing:-0.05em;}.cls-10,.cls-13,.cls-15{fill:#d1d3d4;}.cls-11{letter-spacing:-0.02em;}.cls-12{letter-spacing:-0.04em;}.cls-13{font-size:40px;font-family:Helvetica;}.cls-14{stroke:#d1d3d4;}</style></defs><title>transport_matrix</title><g id="Layer_1" data-name="Layer 1"><rect class="cls-1" x="678.78" y="454.8" width="51.33" height="52.69"/><rect class="cls-1" x="678.78" y="402.11" width="51.33" height="52.69"/><rect class="cls-1" x="678.78" y="349.42" width="51.33" height="52.69"/><rect class="cls-1" x="678.78" y="296.73" width="51.33" height="52.69"/><rect class="cls-1" x="678.78" y="244.03" width="51.33" height="52.7"/><rect class="cls-1" x="678.78" y="191.34" width="51.33" height="52.69"/><rect class="cls-1" x="678.78" y="138.65" width="51.33" height="52.69"/><rect class="cls-1" x="678.78" y="85.96" width="51.33" height="52.69"/><rect class="cls-1" x="678.78" y="33.27" width="51.33" height="52.69"/><rect class="cls-1" x="627.46" y="454.8" width="51.32" height="52.69"/><rect class="cls-1" x="627.46" y="402.11" width="51.32" height="52.69"/><rect class="cls-1" x="627.46" y="349.42" width="51.32" height="52.69"/><rect class="cls-1" x="627.46" y="296.73" width="51.32" height="52.69"/><rect class="cls-1" x="627.46" y="244.03" width="51.32" height="52.7"/><rect class="cls-1" x="627.46" y="191.34" width="51.32" height="52.69"/><rect class="cls-2" x="627.46" y="138.65" width="51.32" height="52.69"/><rect class="cls-1" x="627.46" y="85.96" width="51.32" height="52.69"/><rect class="cls-1" x="627.46" y="33.27" width="51.32" height="52.69"/><rect class="cls-1" x="576.14" y="454.8" width="51.32" height="52.69"/><rect class="cls-2" x="576.14" y="402.11" width="51.32" height="52.69"/><rect class="cls-1" x="576.14" y="349.42" width="51.32" height="52.69"/><rect class="cls-1" x="576.14" y="296.73" width="51.32" height="52.69"/><rect class="cls-2" x="576.14" y="244.03" width="51.32" height="52.7"/><rect class="cls-1" x="576.14" y="191.34" width="51.32" height="52.69"/><rect class="cls-1" x="576.14" y="138.65" width="51.32" height="52.69"/><rect class="cls-1" x="576.14" y="85.96" width="51.32" height="52.69"/><rect class="cls-1" x="576.14" y="33.27" width="51.32" height="52.69"/><rect class="cls-1" x="524.82" y="454.8" width="51.32" height="52.69"/><rect class="cls-1" x="524.82" y="402.11" width="51.32" height="52.69"/><rect class="cls-1" x="524.82" y="349.42" width="51.32" height="52.69"/><rect class="cls-2" x="524.82" y="296.73" width="51.32" height="52.69"/><rect class="cls-1" x="524.82" y="244.03" width="51.32" height="52.7"/><rect class="cls-1" x="524.82" y="191.34" width="51.32" height="52.69"/><rect class="cls-1" x="524.82" y="138.65" width="51.32" height="52.69"/><rect class="cls-1" x="524.82" y="85.96" width="51.32" height="52.69"/><rect class="cls-1" x="524.82" y="33.27" width="51.32" height="52.69"/><rect class="cls-1" x="473.5" y="454.8" width="51.32" height="52.69"/><rect class="cls-1" x="473.5" y="402.11" width="51.32" height="52.69"/><rect class="cls-1" x="473.5" y="349.42" width="51.32" height="52.69"/><rect class="cls-1" x="473.5" y="296.73" width="51.32" height="52.69"/><rect class="cls-1" x="473.5" y="244.03" width="51.32" height="52.7"/><rect class="cls-1" x="473.5" y="191.34" width="51.32" height="52.69"/><rect class="cls-2" x="473.5" y="138.65" width="51.32" height="52.69"/><rect class="cls-1" x="473.5" y="85.96" width="51.32" height="52.69"/><rect class="cls-1" x="473.5" y="33.27" width="51.32" height="52.69"/><rect class="cls-1" x="422.17" y="454.8" width="51.33" height="52.69"/><rect class="cls-1" x="422.17" y="402.11" width="51.33" height="52.69"/><rect class="cls-1" x="422.17" y="349.42" width="51.33" height="52.69"/><rect class="cls-1" x="422.17" y="296.73" width="51.33" height="52.69"/><rect class="cls-1" x="422.17" y="244.03" width="51.33" height="52.7"/><rect class="cls-1" x="422.17" y="191.34" width="51.33" height="52.69"/><rect class="cls-1" x="422.17" y="138.65" width="51.33" height="52.69"/><rect class="cls-1" x="422.17" y="85.96" width="51.33" height="52.69"/><rect class="cls-1" x="422.17" y="33.27" width="51.33" height="52.69"/><rect class="cls-1" x="370.85" y="454.8" width="51.32" height="52.69"/><rect class="cls-1" x="370.85" y="402.11" width="51.32" height="52.69"/><rect class="cls-1" x="370.85" y="349.42" width="51.32" height="52.69"/><rect class="cls-1" x="370.85" y="296.73" width="51.32" height="52.69"/><rect class="cls-2" x="370.85" y="244.03" width="51.32" height="52.7"/><rect class="cls-1" x="370.85" y="191.34" width="51.32" height="52.69"/><rect class="cls-1" x="370.85" y="138.65" width="51.32" height="52.69"/><rect class="cls-1" x="370.85" y="85.96" width="51.32" height="52.69"/><rect class="cls-2" x="370.85" y="33.27" width="51.32" height="52.69"/><rect class="cls-1" x="319.53" y="454.8" width="51.32" height="52.69"/><rect class="cls-2" x="319.53" y="402.11" width="51.32" height="52.69"/><rect class="cls-1" x="319.53" y="349.42" width="51.32" height="52.69"/><rect class="cls-1" x="319.53" y="296.73" width="51.32" height="52.69"/><rect class="cls-1" x="319.53" y="244.03" width="51.32" height="52.7"/><rect class="cls-1" x="319.53" y="191.34" width="51.32" height="52.69"/><rect class="cls-2" x="319.53" y="138.65" width="51.32" height="52.69"/><rect class="cls-1" x="319.53" y="85.96" width="51.32" height="52.69"/><rect class="cls-1" x="319.53" y="33.27" width="51.32" height="52.69"/><rect class="cls-1" x="268.21" y="454.8" width="51.32" height="52.69"/><rect class="cls-1" x="268.21" y="402.11" width="51.32" height="52.69"/><rect class="cls-1" x="268.21" y="349.42" width="51.32" height="52.69"/><rect class="cls-1" x="268.21" y="296.73" width="51.32" height="52.69"/><rect class="cls-1" x="268.21" y="244.03" width="51.32" height="52.7"/><rect class="cls-1" x="268.21" y="191.34" width="51.32" height="52.69"/><rect class="cls-1" x="268.21" y="138.65" width="51.32" height="52.69"/><rect class="cls-1" x="268.21" y="85.96" width="51.32" height="52.69"/><rect class="cls-1" x="268.21" y="33.27" width="51.32" height="52.69"/><polygon class="cls-3" points="268.21 85.96 268.21 33.27 319.53 33.27 370.85 33.27 422.17 33.27 473.5 33.27 524.82 33.27 576.14 33.27 627.46 33.27 678.78 33.27 730.11 33.27 730.11 85.96 730.11 138.65 730.11 191.34 730.11 244.03 730.11 296.73 730.11 349.42 730.11 402.11 730.11 454.8 730.11 507.49 678.78 507.49 627.46 507.49 576.14 507.49 524.82 507.49 473.5 507.49 422.17 507.49 370.85 507.49 319.53 507.49 268.21 507.49 268.21 454.8 268.21 402.11 268.21 349.42 268.21 296.73 268.21 244.03 268.21 191.34 268.21 138.65 268.21 85.96"/><polyline class="cls-3" points="268.21 454.8 319.53 454.8 370.85 454.8 422.17 454.8 473.5 454.8 524.82 454.8 576.14 454.8 627.46 454.8 678.78 454.8 730.11 454.8"/><polyline class="cls-3" points="268.21 402.11 319.53 402.11 370.85 402.11 422.17 402.11 473.5 402.11 524.82 402.11 576.14 402.11 627.46 402.11 678.78 402.11 730.11 402.11"/><polyline class="cls-3" points="268.21 349.42 319.53 349.42 370.85 349.42 422.17 349.42 473.5 349.42 524.82 349.42 576.14 349.42 627.46 349.42 678.78 349.42 730.11 349.42"/><polyline class="cls-3" points="268.21 296.73 319.53 296.73 370.85 296.73 422.17 296.73 473.5 296.73 524.82 296.73 576.14 296.73 627.46 296.73 678.78 296.73 730.11 296.73"/><polyline class="cls-3" points="268.21 244.03 319.53 244.03 370.85 244.03 422.17 244.03 473.5 244.03 524.82 244.03 576.14 244.03 627.46 244.03 678.78 244.03 730.11 244.03"/><polyline class="cls-3" points="268.21 191.34 319.53 191.34 370.85 191.34 422.17 191.34 473.5 191.34 524.82 191.34 576.14 191.34 627.46 191.34 678.78 191.34 730.11 191.34"/><polyline class="cls-3" points="268.21 138.65 319.53 138.65 370.85 138.65 422.17 138.65 473.5 138.65 524.82 138.65 576.14 138.65 627.46 138.65 678.78 138.65 730.11 138.65"/><polyline class="cls-3" points="268.21 85.96 319.53 85.96 370.85 85.96 422.17 85.96 473.5 85.96 524.82 85.96 576.14 85.96 627.46 85.96 678.78 85.96 730.11 85.96"/><polyline class="cls-3" points="678.78 33.27 678.78 85.96 678.78 138.65 678.78 191.34 678.78 244.03 678.78 296.73 678.78 349.42 678.78 402.11 678.78 454.8 678.78 507.49"/><polyline class="cls-3" points="627.46 33.27 627.46 85.96 627.46 138.65 627.46 191.34 627.46 244.03 627.46 296.73 627.46 349.42 627.46 402.11 627.46 454.8 627.46 507.49"/><polyline class="cls-3" points="576.14 33.27 576.14 85.96 576.14 138.65 576.14 191.34 576.14 244.03 576.14 296.73 576.14 349.42 576.14 402.11 576.14 454.8 576.14 507.49"/><polyline class="cls-3" points="524.82 33.27 524.82 85.96 524.82 138.65 524.82 191.34 524.82 244.03 524.82 296.73 524.82 349.42 524.82 402.11 524.82 454.8 524.82 507.49"/><polyline class="cls-3" points="473.5 33.27 473.5 85.96 473.5 138.65 473.5 191.34 473.5 244.03 473.5 296.73 473.5 349.42 473.5 402.11 473.5 454.8 473.5 507.49"/><polyline class="cls-3" points="422.17 33.27 422.17 85.96 422.17 138.65 422.17 191.34 422.17 244.03 422.17 296.73 422.17 349.42 422.17 402.11 422.17 454.8 422.17 507.49"/><polyline class="cls-3" points="370.85 33.27 370.85 85.96 370.85 138.65 370.85 191.34 370.85 244.03 370.85 296.73 370.85 349.42 370.85 402.11 370.85 454.8 370.85 507.49"/><polyline class="cls-3" points="319.53 33.27 319.53 85.96 319.53 138.65 319.53 191.34 319.53 244.03 319.53 296.73 319.53 349.42 319.53 402.11 319.53 454.8 319.53 507.49"/></g><g id="Layer_2" data-name="Layer 2"><rect class="cls-4" x="816.13" y="33.27" width="461.9" height="474.22"/><line class="cls-4" x1="816.13" y1="454.8" x2="1278.02" y2="454.8"/><line class="cls-4" x1="816.13" y1="402.11" x2="1278.02" y2="402.11"/><line class="cls-4" x1="816.13" y1="349.42" x2="1278.02" y2="349.42"/><line class="cls-4" x1="816.13" y1="296.73" x2="1278.02" y2="296.73"/><line class="cls-4" x1="816.13" y1="244.04" x2="1278.02" y2="244.04"/><line class="cls-4" x1="816.13" y1="191.35" x2="1278.02" y2="191.35"/><line class="cls-4" x1="816.13" y1="138.65" x2="1278.02" y2="138.65"/><line class="cls-4" x1="816.13" y1="85.96" x2="1278.02" y2="85.96"/><line class="cls-4" x1="1226.7" y1="33.27" x2="1226.7" y2="507.49"/><line class="cls-4" x1="1175.38" y1="33.27" x2="1175.38" y2="507.49"/><line class="cls-4" x1="1124.06" y1="33.27" x2="1124.06" y2="507.49"/><line class="cls-4" x1="1072.74" y1="33.27" x2="1072.74" y2="507.49"/><line class="cls-4" x1="1021.41" y1="33.27" x2="1021.41" y2="507.49"/><line class="cls-4" x1="970.09" y1="33.27" x2="970.09" y2="507.49"/><line class="cls-4" x1="918.77" y1="33.27" x2="918.77" y2="507.49"/><line class="cls-4" x1="867.45" y1="33.27" x2="867.45" y2="507.49"/></g><g id="Layer_3" data-name="Layer 3"><rect class="cls-5" x="84.48" y="33.27" width="39.83" height="474.22"/><line class="cls-5" x1="84.48" y1="454.8" x2="124.3" y2="454.8"/><line class="cls-5" x1="84.48" y1="402.11" x2="124.3" y2="402.11"/><line class="cls-5" x1="84.48" y1="349.42" x2="124.3" y2="349.42"/><line class="cls-5" x1="84.48" y1="296.73" x2="124.3" y2="296.73"/><line class="cls-5" x1="84.48" y1="244.04" x2="124.3" y2="244.04"/><line class="cls-5" x1="84.48" y1="191.35" x2="124.3" y2="191.35"/><line class="cls-5" x1="84.48" y1="138.65" x2="124.3" y2="138.65"/><line class="cls-5" x1="84.48" y1="85.96" x2="124.3" y2="85.96"/></g><g id="Layer_4" data-name="Layer 4"><rect class="cls-6" x="1377.79" y="33.27" width="39.83" height="474.22"/><line class="cls-6" x1="1377.79" y1="454.8" x2="1417.62" y2="454.8"/><line class="cls-6" x1="1377.79" y1="402.11" x2="1417.62" y2="402.11"/><line class="cls-6" x1="1377.79" y1="349.42" x2="1417.62" y2="349.42"/><line class="cls-6" x1="1377.79" y1="296.73" x2="1417.62" y2="296.73"/><line class="cls-6" x1="1377.79" y1="244.04" x2="1417.62" y2="244.04"/><line class="cls-6" x1="1377.79" y1="191.35" x2="1417.62" y2="191.35"/><line class="cls-6" x1="1377.79" y1="138.65" x2="1417.62" y2="138.65"/><line class="cls-6" x1="1377.79" y1="85.96" x2="1417.62" y2="85.96"/></g><g id="Layer_5" data-name="Layer 5"><line class="cls-7" x1="232.63" y1="2" x2="280.21" y2="2"/><line class="cls-7" x1="234.63" y1="545.2" x2="282.21" y2="545.2"/><line class="cls-7" x1="234.63" y1="2" x2="234.63" y2="545.2"/><line class="cls-7" x1="1266.39" y1="2" x2="1311.39" y2="2"/><line class="cls-7" x1="1311.39" y1="545.2" x2="1266.39" y2="545.2"/><line class="cls-7" x1="1311.39" y1="2" x2="1311.39" y2="545.2"/></g><g id="Layer_6" data-name="Layer 6"><text class="cls-8" transform="translate(15.43 552.43)">Sensor Image <tspan x="-4.19" y="36">Plane </tspan><tspan class="cls-9" x="80.87" y="36">V</tspan><tspan x="99.24" y="36">ector p </tspan><tspan x="65.05" y="72">Mx1</tspan></text><text class="cls-10" transform="translate(403.51 548.9)">Probing Matrix ∏ <tspan x="82.39" y="36">MxN</tspan></text><text class="cls-10" transform="translate(889.2 552.43)">Light<tspan class="cls-11" x="65.05" y="0"> </tspan><tspan class="cls-12" x="72.86" y="0">T</tspan><tspan x="90.09" y="0">ransport Matrix</tspan><tspan class="cls-11" x="290.14" y="0" xml:space="preserve"> T</tspan><tspan x="122.88" y="36" xml:space="preserve"> MxN</tspan></text><text class="cls-10" transform="translate(1323.4 549.43)"><tspan class="cls-9">V</tspan><tspan x="18.37" y="0">ector of N 1s </tspan><tspan x="63.38" y="36">N x1</tspan></text><text x="-226.41" y="-129.62"/><text class="cls-13" transform="translate(173.79 283.04)">=</text><text class="cls-13" transform="translate(1337.97 277.62)">x</text><circle class="cls-14" cx="769.02" cy="271.7" r="15.42"/><circle class="cls-15" cx="769.49" cy="271.96" r="4.1"/></g></svg>